# xmcd CD database file
#
# Track frame offsets:
#	150
#	14250
#	28185
#	42647
#	57477
#	69872
#	84012
#	97250
#	107985
#	124185
#	135182
#	148267
#
# Disc length: 2119 seconds
#
# Revision: 0
# Processed by: cddbd v1.5.1PL2 Copyright (c) Steve Scherf et al.
# Submitted via: CDex 1.51
#
DISCID=a808450c
DTITLE=Various Artist - Boogie Woogie
DYEAR=1993
DGENRE=Jazz
TTITLE0=Tommy Dorsey - Boogie woogie
TTITLE1=Lionel Hampton - Beulah's sister's boogie
TTITLE2=Bob Crosby - Honky tonk train blues
TTITLE3=Benny Goodman - Roll'em
TTITLE4=Oscar Peterson - Oscar's boogie
TTITLE5=Nat King Cole and Lionel Hampton - Central avenue breakdown
TTITLE6=Count Basie and Jimmy Rushing - Boogie woogie
TTITLE7=Joe Turner - Rejane boogie
TTITLE8=Glenn Miller - In the mood
TTITLE9=Art Tatum - Tatum-Pole boogie
TTITLE10=Bob Zurke - Cow cow blues
TTITLE11=Sammy Price - 133 rd.steet boogie
EXTD=YEAR: 1993
EXTT0=
EXTT1=
EXTT2=
EXTT3=
EXTT4=
EXTT5=
EXTT6=
EXTT7=
EXTT8=
EXTT9=
EXTT10=
EXTT11=
PLAYORDER=
